<?xml version="1.0" encoding="UTF-8" standalone="no"?>
<!-- Created with Inkscape (http://www.inkscape.org/) -->

<svg
   version="1.1"
   id="svg2"
   width="4228.855"
   height="4169.334"
   viewBox="0 0 4228.855 4169.334"
   sodipodi:docname="bulldog.svg"
   inkscape:version="1.3.2 (091e20e, 2023-11-25, custom)"
   xmlns:inkscape="http://www.inkscape.org/namespaces/inkscape"
   xmlns:sodipodi="http://sodipodi.sourceforge.net/DTD/sodipodi-0.dtd"
   xmlns="http://www.w3.org/2000/svg"
   xmlns:svg="http://www.w3.org/2000/svg">
  <defs
     id="defs6" />
  <sodipodi:namedview
     id="namedview4"
     pagecolor="#ffffff"
     bordercolor="#000000"
     borderopacity="0.25"
     inkscape:showpageshadow="2"
     inkscape:pageopacity="0.0"
     inkscape:pagecheckerboard="0"
     inkscape:deskcolor="#d1d1d1"
     inkscape:zoom="0.1524375"
     inkscape:cx="2112.3412"
     inkscape:cy="2069.7008"
     inkscape:window-width="1920"
     inkscape:window-height="1009"
     inkscape:window-x="-8"
     inkscape:window-y="-8"
     inkscape:window-maximized="1"
     inkscape:current-layer="g8" />
  <g
     id="g8"
     inkscape:groupmode="layer"
     inkscape:label="ink_ext_XXXXXX"
     transform="matrix(1.3333333,0,0,-1.3333333,-552.2381,4738.0008)">
    <g
       id="g10"
       transform="scale(0.1)">
      <g
         id="g1"
         style="fill:#ffffff">
        <path
           d="m 24619.1,16869.5 c -73.4,159.5 -155.4,313.2 -247.7,459.3 88.4,-156 169.6,-308.4 247.7,-459.3 z m 10244.8,1734.7 c 994.3,546.3 994.3,546.3 994.3,546.3 0,0 0,0 -890.4,692.1 12.6,497.9 73.9,1568.9 73.9,2364.5 l -335,293.1 314.1,2114.5 -1088.7,-1318.9 -292.9,199.4 c 3.9,-55.6 55.7,-10074.5 -8877,-13815.1 762.5,1565 1651.2,3720.5 -143.1,7189.4 1042.9,-2264.9 248.2,-5766.5 -638.4,-6966 -795.6,-1298.1 -5883.1,-1665.4 -7976.7,-369.6 -3077.6,-356.2 -3189.3,3510 -5980.7,6022.2 2233.2,-2958.9 1674.9,-5150.2 3908,-6155.1 -1339.9,-111.6 -5758.61,6.5 -6894.88,1912.1 -778.93,1207.4 -1150.09,2692.1 -1088.67,3412.6 -94.34,-689.6 -338,-3307.4 1514.34,-4354.4 131.05,-131 313.91,-258.2 537.25,-380.1 -476.25,132.8 -1482.93,551.2 -2661.72,1841.1 -1999.88,2188.5 -768.95,6289.3 -602.81,6765.1 166.14,475.9 2930.51,4239.9 2960.52,4270 l -59.22,59.2 c -30.25,-30.3 -2788.28,-3782 -2985.05,-4327 -196.76,-545.1 -1341.25,-4481.1 626.73,-6825.9 1527.76,-1820.3 2903.93,-1921.4 3008.57,-1925.9 2027.54,-935.4 6379.54,-1489.7 7661.84,-872.2 6515.9,-1208.3 10106.3,215.7 13315.2,2931 3957,3348.3 4466.4,8011.5 4731.5,11158.9 237.3,300 837.5,1130.5 837.5,1130.5 l -649.1,-1277.1 c 0,0 146.6,-1350.3 62.8,-2690.2 -104.6,83.7 -669.9,-293.1 -512.9,-963.1 335,1224.8 1842.4,-73.3 1842.4,-73.3 0,0 -1193.4,-858.3 -1821.5,-20.9 -83.7,-575.7 178,-397.8 282.7,-649 -164.1,-1111.8 -780.4,-2887.4 -1339.9,-3726.6 -272.2,83.7 -722.1,-338.4 -732.8,-355.9 816.5,-104.7 1633,-2058.7 1633,-2058.7 0,0 -2198.2,195.4 -1926.1,1807.4 -1151.5,-1151.4 -224.2,-1357.6 -265.1,-1402.7 -970.1,-1067.7 -824.5,-1145.4 -1891.3,-2044.8 649,-523.4 188.4,-2826.3 188.4,-2826.3 0,0 -3147.2,921.2 -586.2,2575.1 -299.9,-6.9 -1137.4,467.6 -1419.7,-1091.8 -957,-759.3 -2134,-1667.6 -2704.7,-1874.1 62.9,-1298 21,-2742.6 21,-2742.6 0,0 -314.1,439.7 -1423.7,1465.6 -182.7,168.9 -586.2,2030.7 1130.6,1339.9 -1172.4,1067.7 -2011.7,-845.8 -2175.9,-828 -671.4,-93.2 -2375.4,-377.5 -2785.9,-337.5 62.8,188.4 -272.2,1214.3 -1528.3,460.6 2554.1,-21 -41.9,-2219.2 -41.9,-2219.2 0,0 37.1,1397.9 -125.6,1821.4 -1109.6,0 -1943.3,437.5 -2826.4,753.7 -110.9,39.7 -732.7,1130.5 -1884.2,565.3 355.9,83.7 1067.7,230.3 1046.8,-837.5 -293.1,-586.2 -1235.2,-1444.6 -1235.2,-1444.6 0,0 20.9,1214.3 62.8,2135.5 -255.3,112.5 -188.5,-2449.5 -188.5,-2449.5 l 1674.9,1381.8 c 791.7,-323.5 1885.9,-682.2 3145.6,-891.1 120.4,-427.9 204.2,-1432.8 204.2,-1432.8 l 1275.5,1270.9 c 0,0 3531.5,467.7 4251.5,564.5 335,-376.9 1570.2,-1674.9 1570.2,-1674.9 0,0 104.7,1570.2 167.5,2072.7 792.3,321.3 2372.8,1388.7 2581.7,1879.8 935.6,-337.6 1940.5,-714.4 1940.5,-714.4 0,0 41.9,1046.8 149,2222.4 1059.4,894.4 1346.9,1264.7 2156.9,2369.6 485.6,27.9 1588.2,6.9 1588.2,6.9 0,0 -446.5,830.5 -681.6,1367.4 180.4,306.3 349.4,616.6 505.9,929.9 673.1,1347.1 1107.8,2710.7 1295.9,4044.4 z M 6031.49,15193.3 c -8.75,-41.1 -15.21,-89.8 -19.83,-143.9 14.51,106 24,159.3 19.83,143.9"
           style="fill:#ffffff;fill-opacity:1;fill-rule:nonzero;stroke:none"
           id="path14" />
        <path
           d="m 18676.8,27154.7 c -1395.8,-279.2 -2617.1,-2081.1 -2617.1,-2081.1 0,0 -1570.1,1467 -3831.2,1522.8 2316.9,-558.3 3583.1,-1713.1 3583.1,-1713.1 24.4,-12.3 3367.6,-4456.1 4428.4,-11462.7 -83.8,6085.4 -3895.5,11218.8 -3758.7,11162.1 426.4,-176.5 1591.5,-1105.6 2195.5,-945.3 1059.2,281.1 1898.2,2205.3 1898.2,2205.3 0,0 -2985.6,-1029.4 -2931.1,-586.3 131.3,1066.3 697.9,1228.3 1451.6,1451.6 753.7,223.3 2596.1,-446.6 2596.1,-446.6 0,0 -1619.1,1172.4 -3014.8,893.3"
           style="fill:#ffffff;fill-opacity:1;fill-rule:nonzero;stroke:none"
           id="path16" />
        <path
           d="m 8051.28,24467.7 c -14.31,-5.2 -350.97,-131.5 -434.5,-528.9 -108.37,-515.5 132.4,-1277.2 922.69,-2157.1 115.19,-128.3 -1139.74,-2798.8 -1000.59,-2931.6 0,0 1504.24,2634 1698.22,2778.4 582,433.1 1807.7,1317.6 2301.2,1462.8 353.2,103.9 608.4,179 674.4,347 34.8,88.6 13.6,196.1 -65,328.5 -514.5,867 -3938.67,710.5 -4084.2,703.4 l -6.33,-0.3 -5.89,-2.2"
           style="fill:#ffffff;fill-opacity:1;fill-rule:nonzero;stroke:none"
           id="path18" />
        <path
           d="m 24203.9,35473.2 c -1110.7,-330 -2415.1,-1368.9 -2437.2,-1380.7 -10,1 -1158.5,1 -2629.3,-43.8 -86.7,-2.7 -1792,1080.4 -2777.5,1326.8 -411.7,103 -2614.4,-1492.1 -2651.9,-1493.4 -44.4,-1.5 2209.2,1193 2593.4,1072 810.8,-255.2 1634,-775.1 1538,-778.9 -2095.7,-83.1 -4013.5,-415.6 -4773.4,-795.6 -1423.7,-711.8 -5527.12,-4438.4 -5694.61,-5234 -167.49,-795.5 -125.61,-2763.5 -125.61,-2763.5 0,0 167.48,2302.9 1214.28,2135.5 714.81,-114.4 905.57,-766 954.67,-1167.8 -326.59,-4.7 -1289.64,623.4 -1289.64,623.4 0,0 -376.85,-1423.6 376.84,-1800.5 1339.91,1130.6 1336.02,968.8 1336.02,968.8 -37.42,135.2 1089.45,209 1050.65,329.3 -18.6,57.6 -1202.48,167.3 -1221.4,221.6 -599.67,1723 -1339.25,1798.5 -1836.44,1474.3 28.09,23 3434.74,3496.2 4983.94,4626.7 1549.3,1130.6 8969.3,1213.3 8969.3,1213.3 0,0 1430.2,793.5 2343.8,1255.6 913.6,462.2 6675.7,-828.2 7249.1,-1250.7 573.3,-422.6 2117,-2940 2161.7,-4570.5 44.6,-1630.4 -750.9,-3305.3 -1755.9,-3514.7 -1004.9,-209.3 -2165.7,-625.4 -2862.4,-124.3 -696.7,501.2 -2449.4,7006.8 -3101.4,7040.9 -651.9,34.2 -2284.9,-49.6 -2284.9,-49.6 0,0 1507.4,-418.7 2177.3,-837.4 670,-418.7 167.5,-7243.9 2931,-7495.1 1925.3,-175 3027.4,57.8 3819.7,441.1 130.2,63 754.4,-1348.5 870,-1278.5 37.7,22.7 -427.6,1524.3 -391.2,1547.7 148.5,95 287.5,194.6 422.5,296 889.9,668.6 1062.9,2599.8 1102,3560.3 39.1,960.5 -2431.3,5022.1 -2933.8,5357.1 -502.5,334.9 -6216.8,1418.7 -7327.6,1088.6"
           style="fill:#ffffff;fill-opacity:1;fill-rule:nonzero;stroke:none"
           id="path20" />
        <path
           d="m 5740.43,17173.7 c 0,91.6 12.02,178.8 30.67,262.5 167.28,-414.9 617.2,-933.3 899.06,-1218.2 -273.92,-11.4 -519.23,-30.6 -709.74,-60.5 -84.93,223.8 -219.99,639.1 -219.99,1016.2 z m 1264.38,-743.4 c 41.58,-44.9 116.5,-125.7 184.41,-199.2 -65.74,-0.6 -130.68,-1.8 -195,-3.1 3.84,53.2 7.4,118.9 10.59,202.3 z m 428.2,-31.9 c 33.37,-33.4 103.91,-104 166.26,-166.3 -72.37,0.3 -144.7,0.5 -216.76,0.3 19.22,63.2 39.38,129.4 50.5,166 z m 366.96,79.6 c 44.44,-44.4 159.59,-159.5 251.43,-251.5 -101.53,2 -204.65,3.5 -308.44,4.5 19.59,84.8 44.78,194.1 57.01,247 z m 460.75,42.4 c 49.47,-61.4 161.77,-200.8 245.63,-304.8 -97.89,2.8 -199.14,5.5 -303.08,7.8 19.18,99.1 44.82,231.6 57.45,297 z m 281.29,646.8 c 0,119.2 9.77,240.9 25.71,361.5 275.86,-511 679.07,-1086.4 868.97,-1349.6 -168.01,8.3 -444.65,20.8 -776.63,31.6 -39.26,163.3 -118.05,542.5 -118.05,956.5 z M 6101.29,15332.8 c -404.78,55.8 -401.46,408 -293.1,516.4 94.08,94.1 531.12,145.2 1100.73,155.7 l 12.72,-5.9 16.85,6.3 c 956.5,15.1 2271.18,-82.3 2973.15,-281.7 l -334.45,448.3 c -8.95,0.5 -21.01,1.2 -33.24,1.8 -177.88,244.1 -672.36,939.2 -962.85,1509 l -55.37,108.6 -23.06,-119.7 c -32.59,-169.4 -45.15,-343.3 -45.15,-510.6 0,-355.8 56.51,-680.3 98.8,-874.1 -118.42,147 -343.52,426.5 -343.52,426.5 0,0 -65.71,-339.5 -85.91,-443.8 -80.97,80.9 -374.52,374.5 -374.52,374.5 0,0 -62.16,-269.4 -83.75,-362.9 -69.88,69.8 -275.1,275.1 -275.1,275.1 0,0 -70.75,-232.6 -96.75,-318 -72.95,78.8 -368.96,398.5 -368.96,398.5 l -3.02,-102.4 c -3.15,-107.6 -8.71,-220 -15.21,-308.2 -41.8,-1.1 -82.77,-2.4 -123.58,-3.8 -98.75,97.3 -233.24,237.9 -372.55,400.3 -12.39,14.4 542.09,1567.4 1041.69,1696.9 293.1,-614.1 865.36,-1186.3 865.36,-1186.3 0,0 -544.33,851.4 -781.62,1353.8 -655.97,-251.2 -1262.78,-1698.7 -1277.22,-1680.5 -206.33,260.9 -394.68,548.8 -454.78,783.7 l -32.02,125.1 -47.47,-120 c -181.31,-458.6 26.13,-1130.2 148.18,-1452.8 -144.5,-27.9 -248.86,-63.3 -294.08,-108.6 -184.7,-184.6 -201.6,-358.3 -183.23,-471.5 25.59,-157.5 57.36,-234.8 214.51,-313.4 l 1786.55,-55.8 c 642.02,-83.7 437.61,-1002.1 460.59,-1005 l 1119.91,936.6 c -22.94,2.7 -1912.37,341.7 -2878.53,207.9"
           style="fill:#ffffff;fill-opacity:1;fill-rule:nonzero;stroke:none"
           id="path22" />
      </g>
    </g>
  </g>
</svg>
