<?xml version="1.0" encoding="UTF-8" standalone="no"?>
<svg
   xml:space="preserve"
   fill-rule="evenodd"
   stroke-linejoin="round"
   stroke-miterlimit="2"
   clip-rule="evenodd"
   viewBox="0 0 157 156.99899"
   version="1.1"
   id="svg21"
   sodipodi:docname="Free SVG Logo 18 (by FreeLogo.me).svg"
   inkscape:export-filename="..\desktop\dev\lmynl-logo.svg"
   inkscape:export-xdpi="96"
   inkscape:export-ydpi="96"
   width="157"
   height="156.99899"
   xmlns:inkscape="http://www.inkscape.org/namespaces/inkscape"
   xmlns:sodipodi="http://sodipodi.sourceforge.net/DTD/sodipodi-0.dtd"
   xmlns="http://www.w3.org/2000/svg"
   xmlns:svg="http://www.w3.org/2000/svg"><defs
   id="defs21" /><sodipodi:namedview
   id="namedview21"
   pagecolor="#ffffff"
   bordercolor="#000000"
   borderopacity="0.25"
   inkscape:showpageshadow="2"
   inkscape:pageopacity="0.0"
   inkscape:pagecheckerboard="0"
   inkscape:deskcolor="#d1d1d1" />
  
  
  
  
  
  
  
  
  
  
  
  
  
  
  
  
  
  
  
  
  <path
   d="m 156.9,71.42 c 0.04,-1.36 0.08,-2.75 0.09,-4.16 L 157,66.13 V 65 c 0,-2.01 -0.02,-3.96 -0.08,-5.86 0.03,-1.13 0.06,-2.28 0.07,-3.45 L 157,54.76 v -0.94 c 0,-1.66 -0.02,-3.28 -0.07,-4.85 0.03,-0.93 0.06,-1.89 0.07,-2.86 v -1.54 c 0,-1.38 -0.02,-2.72 -0.06,-4.02 0.03,-0.77 0.05,-1.56 0.06,-2.37 V 36.9 c 0,-1.14 -0.01,-2.25 -0.05,-3.33 0.03,-0.63 0.04,-1.29 0.05,-1.96 v -1.05 c 0,-0.95 -0.01,-1.87 -0.04,-2.76 0.02,-0.53 0.03,-1.07 0.04,-1.62 V 25.3 c 0,-0.78 -0.01,-1.54 -0.03,-2.28 0.02,-0.44 0.03,-0.89 0.03,-1.34 V 20.95 C 157,13.12 155.62,7.92 152.35,4.65 149.09,1.39 143.89,0 136.05,0 c -0.71,0 -1.39,0.01 -2.06,0.03 A 84.633,84.633 0 0 0 129.2,0.04 C 128.31,0.01 127.39,0 126.45,0 125.41,0 124.41,0.02 123.43,0.05 122.35,0.02 121.24,0 120.1,0 118.85,0 117.64,0.02 116.46,0.06 115.16,0.02 113.82,0 112.44,0 110.93,0 109.46,0.02 108.04,0.07 106.47,0.02 104.85,0 103.18,0 101.36,0 99.58,0.03 97.87,0.09 A 190.73,190.73 0 0 0 85.58,0.11 C 83.29,0.04 80.93,0 78.5,0 49.15,0 29.67,5.2 17.44,17.43 5.21,29.66 0,49.15 0,78.5 c 0,29.36 5.21,48.84 17.44,61.07 12.23,12.229 31.71,17.429 61.06,17.429 29.36,0 48.84,-5.2 61.07,-17.43 11.85,-11.85 17.1,-30.5 17.42,-58.35 l 0.01,-1.35 v -1.37 c 0,-2.43 -0.03,-4.79 -0.1,-7.08 z M 46.93,9.9 C 36.53,12.3 28.46,16.31 22.39,22.38 11.18,33.59 7,51.6 7,78.5 c 0,26.9 4.18,44.91 15.39,56.12 11.2,11.21 29.22,15.379 56.11,15.379 26.9,0 44.92,-4.17 56.12,-15.38 6.08,-6.07 10.08,-14.15 12.48,-24.55 -1.36,2 -2.86,3.83 -4.53,5.5 -10.13,10.12 -26.26,14.43 -50.57,14.43 -24.3,0 -40.43,-4.31 -50.56,-14.43 C 31.31,105.44 27,89.31 27,65 27,40.69 31.31,24.56 41.44,14.43 43.1,12.77 44.93,11.26 46.93,9.9 Z M 65.86,8.2 C 57.25,10.19 50.56,13.5 45.54,18.53 36.26,27.81 32.8,42.73 32.8,65 c 0,22.27 3.46,37.19 12.74,46.47 9.28,9.28 24.19,12.73 46.46,12.73 22.27,0 37.19,-3.45 46.47,-12.73 5.03,-5.03 8.35,-11.71 10.33,-20.33 a 30.668,30.668 0 0 1 -3.75,4.55 c -8.38,8.39 -21.74,11.95 -41.87,11.95 -20.12,0 -33.48,-3.56 -41.87,-11.95 C 52.93,87.31 49.36,73.95 49.36,53.82 49.36,33.69 52.93,20.34 61.31,11.95 62.69,10.57 64.2,9.32 65.86,8.2 Z M 80.62,7.01 c -6.69,1.66 -11.93,4.35 -15.91,8.34 -7.69,7.68 -10.55,20.03 -10.55,38.47 0,18.44 2.86,30.79 10.55,38.48 7.68,7.68 20.03,10.54 38.47,10.54 18.44,0 30.8,-2.86 38.48,-10.54 3.98,-3.98 6.67,-9.22 8.34,-15.91 L 149.99,76 v -0.2 c -0.87,1.24 -1.83,2.39 -2.88,3.43 -6.94,6.95 -18.01,9.9 -34.67,9.9 -16.67,0 -27.73,-2.95 -34.67,-9.9 -6.95,-6.94 -9.9,-18 -9.9,-34.66 0,-16.67 2.95,-27.73 9.9,-34.67 1.05,-1.05 2.19,-2.01 3.44,-2.88 L 81,7.01 Z m 8.55,0.24 c -3.42,1.34 -6.26,3.13 -8.59,5.46 -6.36,6.36 -8.73,16.59 -8.73,31.86 0,15.27 2.37,25.49 8.73,31.86 6.36,6.36 16.59,8.73 31.86,8.73 15.27,0 25.5,-2.37 31.86,-8.73 2.33,-2.33 4.12,-5.18 5.46,-8.59 -0.05,-1.03 -0.11,-2.04 -0.18,-3.04 -0.25,0.27 -0.51,0.55 -0.77,0.81 -5.75,5.75 -14.91,8.19 -28.71,8.19 -13.8,0 -22.95,-2.44 -28.7,-8.19 C 85.65,59.86 83.2,50.7 83.2,36.9 83.2,23.1 85.65,13.94 91.4,8.19 91.66,7.93 91.93,7.67 92.21,7.43 91.21,7.36 90.2,7.3 89.17,7.25 Z m 7.96,0.59 c -1.26,0.77 -2.39,1.67 -3.41,2.68 -5.27,5.27 -7.23,13.74 -7.23,26.38 0,12.65 1.96,21.11 7.23,26.38 5.27,5.27 13.74,7.23 26.38,7.23 12.65,0 21.12,-1.96 26.38,-7.23 1.02,-1.01 1.91,-2.15 2.69,-3.4 -0.15,-1.43 -0.31,-2.82 -0.49,-4.19 -4.8,3.79 -11.97,5.42 -22.23,5.42 -11.43,0 -19.01,-2.02 -23.77,-6.78 -4.76,-4.76 -6.79,-12.35 -6.79,-23.77 0,-10.27 1.64,-17.43 5.42,-22.23 C 99.95,8.14 98.55,7.98 97.13,7.84 Z m 7.38,0.97 c -4.29,4.37 -5.89,11.35 -5.89,21.75 0,10.46 1.62,17.48 5.99,21.84 4.36,4.36 11.37,5.99 21.84,5.99 10.39,0 17.38,-1.61 21.75,-5.9 -0.27,-1.58 -0.56,-3.12 -0.89,-4.62 -3.81,1.89 -8.91,2.73 -15.61,2.73 -9.46,0 -15.74,-1.67 -19.68,-5.62 -3.94,-3.94 -5.62,-10.22 -5.62,-19.68 0,-6.7 0.84,-11.8 2.73,-15.61 -1.49,-0.33 -3.03,-0.62 -4.62,-0.88 z m 6.88,1.41 c -1.96,3.57 -2.73,8.5 -2.73,15.08 0,8.67 1.35,14.48 4.96,18.09 3.61,3.61 9.41,4.96 18.08,4.96 6.58,0 11.51,-0.78 15.09,-2.73 -0.41,-1.63 -0.85,-3.19 -1.34,-4.7 -2.59,0.67 -5.7,0.98 -9.4,0.98 -7.83,0 -13.03,-1.39 -16.29,-4.65 -3.27,-3.27 -4.65,-8.47 -4.65,-16.3 0,-3.69 0.3,-6.8 0.97,-9.4 -1.51,-0.49 -3.07,-0.93 -4.69,-1.33 z m 6.45,1.93 c -0.61,2.42 -0.87,5.33 -0.87,8.8 0,7.18 1.12,11.99 4.11,14.98 2.99,2.99 7.8,4.1 14.97,4.1 3.47,0 6.38,-0.26 8.81,-0.86 -2.42,-6.77 -5.77,-12.32 -10.24,-16.79 -4.46,-4.47 -10.01,-7.82 -16.78,-10.23 z"
   id="path21"
   style="fill:#f43f5e;fill-opacity:1"
   inkscape:export-filename="..\desktop\dev\lmynl-logo.svg"
   inkscape:export-xdpi="96"
   inkscape:export-ydpi="96" />
</svg>
