<svg version="1.1" id="svg2" width="491.51999" height="428.37332" viewBox="0 0 491.51999 428.37332" style="" xmlns="http://www.w3.org/2000/svg">
  <defs id="defs6"></defs>
  <g id="g10" transform="matrix(0.133333, 0, 0, -0.133333, 0, 428.373322)">
    <path d="m 2187.31,622.719 c 0.99,-31.688 -23.9,-58.188 -55.58,-59.18 -31.69,-0.988 -58.18,23.891 -59.18,55.57 -3.43,98.84 -83.35,125.93 -104.06,131.301 h -700.88 c -6.08,0 -11.93,0.949 -17.43,2.692 -3.6,0.929 -8.49,2.296 -14.34,4.257 -0.53,0.141 -1.06,0.313 -1.59,0.473 -117.87,37.648 -331.074,110.848 -532.785,180.098 -218.774,75.12 -424.34,145.69 -467.324,157.63 -64.848,18.01 -106.375,-69.78 -106.5,-70.03 l -0.043,0.02 c -0.485,-0.99 -0.989,-1.97 -1.528,-2.95 -29.9372,-54.01 9.035,-107.971 23.34,-124.94 L 1512.42,139.879 c 1,-0.5 2,-1.039 2.99,-1.609 83.22,-48.0512 161.91,-10.161 177.09,-1.938 4.27,2.859 8.99,5.199 14.11,6.887 l 1011.71,333.863 c 6.3,2.379 13.16,3.68 20.31,3.68 h 225.71 c 31.81,0 57.6,-25.793 57.6,-57.59 0,-31.813 -25.79,-57.602 -57.6,-57.602 H 2747.76 L 1746.8,35.2617 c -31.1,-16.2226 -157.32,-72.4609 -288.99,3.5586 l -1.19,0.711 L 85.2109,801.969 c -5.0156,2.793 -9.4492,6.23 -13.2578,10.14 l -0.0156,-0.007 c -0.3516,0.347 -122.4023,123.957 -47.7812,263.368 l -0.0118,0.01 c 0.2422,0.5 82.3245,174.74 240.5975,130.78 50.899,-14.14 255.899,-84.52 474.071,-159.42 119.464,-41.02 242.792,-83.36 344.967,-118.008 -3.8,18.738 -5.83,39.367 -5.56,62.078 2.44,208.51 209.27,232.82 209.86,232.9 2.5,0.32 4.98,0.48 7.43,0.49 v 0.18 h 527.26 c 69.6,31.45 429.24,191.37 622.89,225.95 0.72,0.13 1.44,0.25 2.17,0.34 86.44,15.23 193.73,20.04 291.21,20.34 97.59,0.3 183.3,-3.84 228.67,-6.57 31.69,-1.85 55.87,-29.06 54,-60.75 -1.86,-31.68 -29.06,-55.86 -60.75,-53.99 -45.24,2.7 -129.86,6.83 -221.92,6.56 -90.66,-0.28 -190.53,-4.78 -271.29,-18.97 -0.61,-0.13 -1.22,-0.25 -1.84,-0.36 -189.62,-33.86 -558.1,-199.95 -602.82,-220.29 -8.37,-4.75 -18.04,-7.46 -28.35,-7.46 H 1298.7 c -20.03,-3.66 -104.62,-24.74 -105.73,-119.721 -0.26,-22.118 2.88,-40.379 8.17,-55.438 5.63,-16.07 13.93,-28.492 23.01,-38.051 15.2,-16 31.82,-24.199 42.56,-28.191 l 2.19,-0.699 c 1.1,-0.34 2.17,-0.731 3.23,-1.129 l 1.48,-0.43 h 700.58 v -0.152 c 3.49,0 7.03,-0.309 10.58,-0.989 0.56,-0.089 195.34,-35.378 202.54,-241.761" style="fill: rgb(255, 255, 255); fill-opacity: 1; fill-rule: nonzero; stroke: black; stroke-width: 2rem;" id="path12"></path>
    <path d="m 3055.56,1724.65 h 501.8 c 35.19,0 67.3,-14.41 90.76,-37.68 l 0.17,-0.16 0.11,-0.12 0.11,-0.11 v 0 c 23.36,-23.47 37.85,-55.65 37.85,-90.92 V 241 c 0,-35.191 -14.41,-67.301 -37.68,-90.75 l -0.17,-0.18 -0.11,-0.109 -0.11,-0.109 v 0.007 C 3624.82,126.492 3592.64,112 3557.36,112 h -501.8 c -33.24,0 -63.75,12.871 -86.8,33.922 -1.49,1.219 -2.94,2.527 -4.34,3.93 -23.35,23.347 -37.85,55.617 -37.85,91.148 v 1354.66 c 0,35.53 14.5,67.8 37.85,91.15 l 0.11,-0.12 c 23.47,23.43 55.71,37.96 91.03,37.96 z m 501.8,-115.2 h -501.8 c -3.88,0 -7.3,-1.48 -9.7,-3.87 l -0.1,-0.11 0.1,-0.11 c -2.52,-2.53 -4.1,-5.97 -4.1,-9.7 V 241 c 0,-3.73 1.58,-7.168 4.1,-9.699 0.46,-0.449 0.9,-0.922 1.33,-1.379 2.27,-1.711 5.17,-2.723 8.37,-2.723 h 501.8 c 3.89,0 7.31,1.492 9.71,3.883 l 0.22,0.219 v 0 c 2.38,2.379 3.88,5.82 3.88,9.699 v 1354.66 c 0,3.88 -1.5,7.31 -3.88,9.7 l -0.22,0.22 v 0 c -2.4,2.39 -5.82,3.87 -9.71,3.87 v 0" style="fill: rgb(255, 255, 255); fill-opacity: 1; fill-rule: nonzero; stroke: black; stroke-width: 2rem;" id="path14"></path>
    <path d="m 1739.81,2879.18 c -134.93,134.94 -321.36,218.4 -527.27,218.4 -205.91,0 -392.337,-83.46 -527.27,-218.4 -134.934,-134.93 -218.399,-321.35 -218.399,-527.27 0,-205.91 83.465,-392.33 218.399,-527.26 134.933,-134.94 321.36,-218.4 527.27,-218.4 205.91,0 392.34,83.46 527.27,218.4 134.94,134.93 218.4,321.35 218.4,527.26 0,205.92 -83.46,392.34 -218.4,527.27 z m -527.27,333.6 c 237.71,0 452.93,-96.36 608.72,-252.14 155.79,-155.79 252.15,-371.01 252.15,-608.73 0,-237.71 -96.36,-452.93 -252.15,-608.71 -155.79,-155.8 -371.01,-252.15 -608.72,-252.15 -237.716,0 -452.935,96.35 -608.724,252.15 -155.785,155.78 -252.144,371 -252.144,608.71 0,237.72 96.359,452.94 252.144,608.73 155.789,155.78 371.008,252.14 608.724,252.14 v 0" style="fill: rgb(255, 255, 255); fill-opacity: 1; fill-rule: nonzero; stroke: black; stroke-width: 2rem;" id="path16"></path>
    <path d="m 1451.87,2216.09 c 0,-31.59 -5.64,-59.98 -16.92,-85.36 -11.1,-25.19 -27.08,-47.18 -47.57,-65.42 -20.49,-18.42 -45.31,-33.09 -74.45,-44.18 -28.95,-10.9 -61.1,-17.86 -96.25,-20.87 l -11.66,-117.88 c -0.38,-3 -1.13,-5.44 -2.45,-7.7 -1.31,-2.26 -3.57,-4.14 -7.14,-5.45 -3.57,-1.51 -8.27,-2.82 -14.28,-3.58 -6.02,-0.94 -13.73,-1.5 -22.94,-1.5 -11.66,0 -21.25,0.56 -28.39,1.69 -7.14,1.13 -12.78,2.63 -16.73,4.7 -3.95,2.07 -6.77,4.7 -7.9,7.9 -1.31,3.38 -1.69,7.14 -0.94,11.09 l 11.66,111.86 c -15.79,2.25 -30.65,5.08 -44.75,8.46 -13.91,3.57 -26.5,7.33 -37.97,11.66 -11.28,4.13 -21.25,8.46 -29.52,12.97 -8.08,4.32 -14.471,8.65 -18.607,12.78 -4.325,4.32 -7.333,10.53 -9.028,18.8 -1.879,8.27 -2.816,20.49 -2.816,36.66 0,12.41 0.375,22.75 1.129,30.83 0.75,8.09 1.875,14.29 3.757,18.81 1.879,4.32 4.137,7.32 6.958,9.02 2.812,1.69 6.011,2.44 9.585,2.44 4.887,0 11.842,-2.82 20.872,-8.27 9.21,-5.45 21.05,-11.47 35.34,-18.23 14.29,-6.59 31.58,-12.6 52.08,-18.06 20.3,-5.64 44.36,-8.27 71.81,-8.27 43.05,0 75.02,7.9 95.88,23.88 20.87,15.98 31.4,37.22 31.4,63.73 0,17.49 -4.52,32.15 -13.54,43.43 -9.02,11.47 -21.05,21.43 -36.09,30.08 -15.04,8.65 -31.97,16.35 -50.95,23.12 -18.8,6.77 -38.16,13.91 -58.1,21.81 -19.74,7.71 -39.1,16.55 -58.09,26.89 -18.99,10.34 -35.9,22.93 -50.94,37.97 -15.04,15.04 -27.07,33.28 -36.101,54.9 -9.02,21.43 -13.535,47.37 -13.535,77.83 0,27.64 4.703,52.64 13.914,75.2 9.022,22.56 22.372,42.3 39.672,59.22 17.1,16.92 38.35,30.65 63.54,40.98 25.19,10.53 53.77,17.67 85.73,21.25 l 10.9,110.73 c 0.38,3.01 1.13,5.45 2.44,7.52 1.32,1.88 3.76,3.76 7.15,5.45 3.57,1.69 8.27,2.82 14.1,3.57 5.82,0.75 13.53,1.13 23.12,1.13 11.47,0 20.87,-0.57 28.39,-1.69 7.52,-1.13 13.35,-2.63 17.3,-4.7 4.13,-2.07 6.57,-4.7 7.7,-7.9 1.13,-3.38 1.7,-7.14 1.7,-11.09 l -10.91,-104.15 c 10.15,-1.51 21.06,-3.38 32.34,-6.02 11.47,-2.63 22.18,-5.64 31.96,-9.02 9.96,-3.57 18.98,-7.15 27.07,-11.09 8.09,-3.76 13.72,-7.33 16.73,-10.53 3.2,-3.01 5.45,-6.2 7.15,-9.21 1.69,-3.2 3.01,-6.96 3.94,-11.66 0.95,-4.51 1.51,-10.15 1.88,-16.54 0.38,-6.4 0.57,-13.72 0.57,-22.19 0,-11.46 -0.19,-20.87 -0.76,-28.2 -0.56,-7.33 -1.69,-12.97 -3.19,-16.73 -1.31,-3.94 -3.01,-6.39 -4.89,-7.71 -1.88,-1.31 -3.94,-1.88 -6.58,-1.88 -4.7,0 -11.84,2.26 -20.87,7.15 -9.21,4.7 -20.49,9.77 -34.02,15.41 -13.35,5.45 -28.77,10.53 -46.25,15.42 -17.3,4.7 -36.48,7.15 -57.53,7.15 -18.99,0 -35.34,-1.89 -49.07,-5.46 -13.53,-3.76 -24.44,-8.83 -32.9,-15.61 -8.46,-6.57 -14.66,-14.47 -18.79,-23.68 -3.95,-9.03 -6.02,-19.18 -6.02,-30.27 0,-17.1 4.51,-31.77 13.72,-43.43 9.21,-11.84 21.43,-21.8 36.66,-30.26 15.23,-8.46 32.52,-16.17 51.7,-23.13 19.36,-6.95 38.92,-14.29 59.03,-21.99 19.93,-7.71 39.67,-16.74 58.85,-26.89 19.36,-9.96 36.47,-22.56 51.51,-37.41 15.04,-14.85 27.26,-32.9 36.47,-53.96 9.02,-21.05 13.73,-46.43 13.73,-76.32" style="fill: rgb(255, 255, 255); fill-opacity: 1; fill-rule: nonzero; stroke: black; stroke-width: 2rem;" id="path18"></path>
  </g>
</svg>
